<svg xmlns="http://www.w3.org/2000/svg" xmlns:xlink="http://www.w3.org/1999/xlink" viewBox="0 0 409 143">
  <defs>
    <style>
      .cls-1 {
        clip-path: url(#clip-mainlogo);
      }

      .cls-2 {
        fill: #212121;
      }
    </style>
    <clipPath id="clip-mainlogo">
      <rect width="409" height="143"/>
    </clipPath>
  </defs>
  <g id="mainlogo" class="cls-1">
    <g id="Group_1" data-name="Group 1" transform="translate(0 -3)">
      <g id="Group_3" data-name="Group 3" transform="translate(0 4)">
        <g id="mainlogo-2" data-name="mainlogo" transform="translate(90.8 -351.2)">
          <g id="Group_2" data-name="Group 2">
            <g id="Group_1-2" data-name="Group 1">
              <path id="Path_1" data-name="Path 1" class="cls-2" d="M5.9,427.2l-.2-22.4v-3.1c0-3.3-.1-5.9-.1-9.1-.1-5.9-4.6-10.1-10.9-10.1h-.1a14.233,14.233,0,0,0-5.7.9l-.1-6.7a11.094,11.094,0,0,0-3.1-8,11.439,11.439,0,0,0-8.1-3.4,10.959,10.959,0,0,0-4.5.9,9.3,9.3,0,0,0-1,.5,10.761,10.761,0,0,0-3.363-7.562A10.761,10.761,0,0,0-39,356.2h-.7a10.786,10.786,0,0,0-10.4,10.7,10.757,10.757,0,0,0-5.3-1.4,12.9,12.9,0,0,0-5,1.1,10.7,10.7,0,0,0-6.3,10.1l.4,38.8a18.482,18.482,0,0,0-9.5-3.7l-6.6-.9-.4,6.7v1.1c0,2,0,4,.1,6v.4c.1,4.7.1,9.6.1,14.4a70.919,70.919,0,0,0,1.3,15.6c2.3,10.2,7.5,18.3,15.5,23.8a42.025,42.025,0,0,0,24.2,7.4h4.8c3.9,0,7.9-.1,12.3-.2a31.786,31.786,0,0,0,20.7-7.7c6.7-5.7,10-13.3,9.9-22.4C6.1,446.5,6,436.9,5.9,427.2Zm-81.4-2.3c0-1.9,0-3.8-.1-5.7a9.254,9.254,0,0,1,6.1,3.4,6.792,6.792,0,0,1,1.5,4.5c.1,2.3.1,4.7.1,7v6.4c0,1.9,0,3.8.1,5.6a8.884,8.884,0,0,0,.4,2.7c3.6,12.3,15.8,21.1,29.7,21.1a31.778,31.778,0,0,0,24.8-11.6l.7-.8L-19,452l-.7.8a22.815,22.815,0,0,1-17.9,8.3c-9.8,0-18.4-5.9-21.1-14.2v-5.3c-.2-16-.3-31.9-.5-47.9l-.1-17a3.266,3.266,0,0,1,2-3.4,4.919,4.919,0,0,1,2-.5,3.58,3.58,0,0,1,2.5,1.1,3.763,3.763,0,0,1,1.1,2.8c.1,7,.1,14,.2,21l.1,7.9c0,2.7.1,5.4.1,8v4.9c0,2.9,1.9,5,4.5,5h.1c2.7-.1,4.5-2.1,4.4-5.1l-.1-13.9c-.1-12.3-.2-24.6-.4-36.9,0-2.5,1.3-4,3.5-4.1h.3a3.569,3.569,0,0,1,2.763,1.037A3.569,3.569,0,0,1-35.2,367.3c.1,3.9.1,7.9.1,11.8,0,1.9,0,3.8.1,5.7l.3,26.3v2.5c0,1.7,0,3.5.1,5.2a4.5,4.5,0,0,0,1.207,3.378A4.5,4.5,0,0,0-30.1,423.6h.3c2.6-.2,4.4-2.4,4.2-5.4-.1-1.9-.1-3.8-.1-5.6v-6.4c-.1-9.8-.2-19.7-.3-29.5a3.547,3.547,0,0,1,2.2-3.6,4.012,4.012,0,0,1,1.5-.3,4.253,4.253,0,0,1,2.9,1.2,3.667,3.667,0,0,1,.9,2.7v3.5c0,4.7.1,9.4.1,14.1,0,1.9.1,3.8.1,5.8,0,2.1.1,4.2.1,6.2v12.9a4.508,4.508,0,0,0,4.5,4.3,4.375,4.375,0,0,0,3.119-1.281A4.375,4.375,0,0,0-9.3,419.1c0-2,0-4-.1-6,0-1.6-.1-3.3-.1-4.9v-1.1c0-4.9-.1-9.9,0-14.9,0-2,1.6-3.4,3.8-3.4a3.491,3.491,0,0,1,2.645.983A3.491,3.491,0,0,1-2,392.4c.1,3.1.1,6.3.1,9.4v3.4l.2,19.6.3,31.8c.1,6.9-2.4,12.6-7.4,16.8A25.663,25.663,0,0,1-25,479.3c-4.3.1-8.3.2-12.1.2h-4.7c-7.9-.1-14.5-2.1-20.1-6.1-6.5-4.6-10.7-10.9-12.6-19.5A55.62,55.62,0,0,1-75.6,440c.3-5.3.2-10.3.1-15.1Z"/>
              <path id="Path_2" data-name="Path 2" class="cls-2" d="M-19.5,434.3a5.335,5.335,0,0,0-5.3,5.3,5.335,5.335,0,0,0,5.3,5.3,5.335,5.335,0,0,0,5.3-5.3,5.209,5.209,0,0,0-1.525-3.775A5.209,5.209,0,0,0-19.5,434.3Z"/>
            </g>
          </g>
        </g>
        <path id="sayrin" class="cls-2" d="M25.3.8Q11.6.8,3.5-5.6L7-14.4a30.273,30.273,0,0,0,18.5,6,13.369,13.369,0,0,0,6.95-1.5,4.683,4.683,0,0,0,2.45-4.2,4.415,4.415,0,0,0-1.7-3.65,15.692,15.692,0,0,0-5.8-2.35L19-22Q5.2-25,5.2-36.1a13.434,13.434,0,0,1,2.6-8.15,17.073,17.073,0,0,1,7.3-5.55,27.651,27.651,0,0,1,10.9-2,32.971,32.971,0,0,1,10.4,1.65,27.308,27.308,0,0,1,8.8,4.75l-3.7,8.5q-7.6-5.6-15.6-5.6a12,12,0,0,0-6.7,1.6,5.019,5.019,0,0,0-2.4,4.4A4.467,4.467,0,0,0,18.25-33a12.1,12.1,0,0,0,4.95,2.2l8.6,1.9q7.5,1.7,10.95,5.25A12.712,12.712,0,0,1,46.2-14.4,13.044,13.044,0,0,1,40.6-3.3Q35,.8,25.3.8Zm79.9-51.3V0H92.9V-8.1a16.222,16.222,0,0,1-6.6,6.55A20.1,20.1,0,0,1,76.5.8,21.548,21.548,0,0,1,64.8-2.4a21.134,21.134,0,0,1-7.9-9.1,31.622,31.622,0,0,1-2.8-13.7,32.138,32.138,0,0,1,2.85-13.85,22.312,22.312,0,0,1,7.95-9.4A20.654,20.654,0,0,1,76.5-51.8a20.1,20.1,0,0,1,9.8,2.35,16.222,16.222,0,0,1,6.6,6.55v-7.6ZM79.9-9q6.2,0,9.6-4.3t3.4-12.1q0-8-3.4-12.3T79.8-42a11.514,11.514,0,0,0-9.65,4.45Q66.7-33.1,66.7-25.2q0,7.8,3.45,12T79.9-9Zm86.7-41.5L143.1,3.4q-4,9.4-10.2,13.7a36.106,36.106,0,0,1-15.3,5.7l-2.8-9.6q7.1-1.6,10.65-4.05A17.269,17.269,0,0,0,131.2,1.9l1.6-3.7-21-48.7h13.1l14.5,36.3,14.8-36.3Zm33.7-1.2a14.046,14.046,0,0,1,5,.8l-.1,11.4a17.381,17.381,0,0,0-6.6-1.3q-6.4,0-9.75,3.7t-3.35,9.8V0H173.1V-36.2a114.492,114.492,0,0,0-.8-14.3H184l1,8.9a15.009,15.009,0,0,1,6-7.5A17,17,0,0,1,200.3-51.7ZM212.3,0V-50.5h12.4V0Zm-.8-73.4h13.9v12.3H211.5Zm55.8,21.6q18.1,0,18.1,20.8V0H272.9V-30.4q0-6-2.3-8.75t-7.1-2.75a12.163,12.163,0,0,0-9.2,3.65,13.359,13.359,0,0,0-3.5,9.65V0H238.4V-36.2a114.492,114.492,0,0,0-.8-14.3h11.7l.9,8.3a18.273,18.273,0,0,1,7.05-7.1A20.161,20.161,0,0,1,267.3-51.8Z" transform="translate(114 108)"/>
      </g>
    </g>
  </g>
</svg>
