<?xml version="1.0" encoding="utf-8"?>
<!-- Generator: Adobe Illustrator 21.0.0, SVG Export Plug-In . SVG Version: 6.00 Build 0)  -->
<svg version="1.1" id="Capa_1" xmlns="http://www.w3.org/2000/svg" xmlns:xlink="http://www.w3.org/1999/xlink" x="0px" y="0px"
	 viewBox="0 0 409 143" style="enable-background:new 0 0 409 143;" xml:space="preserve">
<style type="text/css">
	.st0{fill:#FFFFFF;}
</style>
<g>
	<g id="mainlogo">
		<g id="Group_1" transform="translate(0 -3)">
			<g id="Group_3" transform="translate(0 4)">
				<g id="mainlogo-2" transform="translate(90.8 -351.2)">
					<g id="Group_2">
						<g id="Group_1-2">
							<path id="Path_1" class="st0" d="M5.9,427.2l-0.2-22.4v-3.1c0-3.3-0.1-5.9-0.1-9.1c-0.1-5.9-4.6-10.1-10.9-10.1h-0.1
								c-1.9-0.1-3.9,0.2-5.7,0.9l-0.1-6.7c0.1-3-1-5.9-3.1-8c-2.1-2.2-5.1-3.4-8.1-3.4c-1.5,0-3.1,0.3-4.5,0.9
								c-0.3,0.1-0.7,0.3-1,0.5c-0.1-2.9-1.3-5.6-3.4-7.6c-2.1-2-4.9-3-7.7-2.9h-0.7c-5.8,0.2-10.4,4.9-10.4,10.7
								c-1.6-0.9-3.4-1.4-5.3-1.4c-1.7,0-3.4,0.4-5,1.1c-4,1.8-6.4,5.8-6.3,10.1l0.4,38.8c-2.8-2.1-6-3.4-9.5-3.7l-6.6-0.9l-0.4,6.7
								v1.1c0,2,0,4,0.1,6v0.4c0.1,4.7,0.1,9.6,0.1,14.4c-0.1,5.2,0.3,10.5,1.3,15.6c2.3,10.2,7.5,18.3,15.5,23.8
								c7.1,4.9,15.6,7.5,24.2,7.4h4.8c3.9,0,7.9-0.1,12.3-0.2c7.6,0,14.9-2.7,20.7-7.7c6.7-5.7,10-13.3,9.9-22.4
								C6.1,446.5,6,436.9,5.9,427.2z M-75.5,424.9c0-1.9,0-3.8-0.1-5.7c2.4,0.3,4.6,1.5,6.1,3.4c1,1.3,1.6,2.9,1.5,4.5
								c0.1,2.3,0.1,4.7,0.1,7v6.4c0,1.9,0,3.8,0.1,5.6c0,0.9,0.1,1.8,0.4,2.7c3.6,12.3,15.8,21.1,29.7,21.1
								c9.6,0.1,18.7-4.2,24.8-11.6l0.7-0.8L-19,452l-0.7,0.8c-4.4,5.3-11,8.4-17.9,8.3c-9.8,0-18.4-5.9-21.1-14.2v-5.3
								c-0.2-16-0.3-31.9-0.5-47.9l-0.1-17c-0.2-1.5,0.6-2.8,2-3.4c0.6-0.3,1.3-0.5,2-0.5c0.9,0,1.8,0.4,2.5,1.1
								c0.7,0.7,1.1,1.8,1.1,2.8c0.1,7,0.1,14,0.2,21l0.1,7.9c0,2.7,0.1,5.4,0.1,8v4.9c0,2.9,1.9,5,4.5,5h0.1
								c2.7-0.1,4.5-2.1,4.4-5.1l-0.1-13.9c-0.1-12.3-0.2-24.6-0.4-36.9c0-2.5,1.3-4,3.5-4.1h0.3c1-0.1,2,0.3,2.8,1
								c0.7,0.7,1.1,1.7,1,2.8c0.1,3.9,0.1,7.9,0.1,11.8c0,1.9,0,3.8,0.1,5.7l0.3,26.3v2.5c0,1.7,0,3.5,0.1,5.2
								c-0.1,1.2,0.4,2.5,1.2,3.4c0.9,0.9,2,1.4,3.3,1.4h0.3c2.6-0.2,4.4-2.4,4.2-5.4c-0.1-1.9-0.1-3.8-0.1-5.6v-6.4
								c-0.1-9.8-0.2-19.7-0.3-29.5c-0.1-1.6,0.8-3,2.2-3.6c0.5-0.2,1-0.3,1.5-0.3c1.1,0,2.1,0.4,2.9,1.2c0.7,0.7,1,1.7,0.9,2.7v3.5
								c0,4.7,0.1,9.4,0.1,14.1c0,1.9,0.1,3.8,0.1,5.8c0,2.1,0.1,4.2,0.1,6.2v12.9c0.1,2.4,2.1,4.3,4.5,4.3c1.2,0,2.3-0.5,3.1-1.3
								c0.8-0.8,1.3-1.9,1.3-3.1c0-2,0-4-0.1-6c0-1.6-0.1-3.3-0.1-4.9v-1.1c0-4.9-0.1-9.9,0-14.9c0-2,1.6-3.4,3.8-3.4
								c1-0.1,1.9,0.3,2.6,1c0.7,0.7,1.1,1.6,1.1,2.6c0.1,3.1,0.1,6.3,0.1,9.4v3.4l0.2,19.6l0.3,31.8c0.1,6.9-2.4,12.6-7.4,16.8
								c-4.6,3.8-10.3,5.9-16.2,5.9c-4.3,0.1-8.3,0.2-12.1,0.2h-4.7c-7.9-0.1-14.5-2.1-20.1-6.1c-6.5-4.6-10.7-10.9-12.6-19.5
								c-0.9-4.6-1.3-9.2-1.1-13.9C-75.3,434.7-75.4,429.7-75.5,424.9L-75.5,424.9z"/>
							<path id="Path_2" class="st0" d="M-19.5,434.3c-2.9,0-5.3,2.4-5.3,5.3c0,2.9,2.4,5.3,5.3,5.3c2.9,0,5.3-2.4,5.3-5.3
								c0-1.4-0.5-2.8-1.5-3.8C-16.7,434.8-18.1,434.3-19.5,434.3z"/>
						</g>
					</g>
				</g>
				<path id="sayrin" class="st0" d="M139.3,108.8c-9.1,0-16.4-2.1-21.8-6.4l3.5-8.8c5.3,4,11.8,6.1,18.5,6c2.4,0.1,4.8-0.4,6.9-1.5
					c1.5-0.8,2.5-2.5,2.4-4.2c0.1-1.4-0.6-2.8-1.7-3.7c-1.8-1.2-3.7-2-5.8-2.3L133,86c-9.2-2-13.8-6.7-13.8-14.1
					c0-2.9,0.9-5.8,2.6-8.2c1.9-2.5,4.4-4.4,7.3-5.5c3.5-1.4,7.2-2.1,10.9-2c3.5,0,7,0.5,10.4,1.7c3.2,1,6.2,2.6,8.8,4.8l-3.7,8.5
					c-5.1-3.7-10.3-5.6-15.6-5.6c-2.3-0.1-4.7,0.4-6.7,1.6c-1.5,0.9-2.4,2.6-2.4,4.4c-0.1,1.3,0.5,2.6,1.4,3.5
					c1.5,1.1,3.2,1.9,4.9,2.2l8.6,1.9c5,1.1,8.6,2.9,10.9,5.3c2.3,2.5,3.6,5.8,3.4,9.3c0.1,4.4-2,8.6-5.6,11.1
					C150.9,107.4,145.8,108.8,139.3,108.8z M219.2,57.5V108h-12.3v-8.1c-1.5,2.8-3.8,5.1-6.6,6.5c-3,1.6-6.4,2.4-9.8,2.4
					c-4.1,0.1-8.2-1-11.7-3.2c-3.5-2.2-6.2-5.4-7.9-9.1c-1.9-4.3-2.9-9-2.8-13.7c-0.1-4.8,0.9-9.5,2.8-13.9c1.7-3.8,4.5-7.1,7.9-9.4
					c3.4-2.2,7.5-3.4,11.6-3.3c3.4-0.1,6.8,0.7,9.8,2.3c2.8,1.5,5.1,3.8,6.6,6.5v-7.6H219.2z M193.9,99c4.1,0,7.3-1.4,9.6-4.3
					c2.3-2.9,3.4-6.9,3.4-12.1c0-5.3-1.1-9.4-3.4-12.3S198,66,193.8,66c-3.7-0.2-7.4,1.5-9.7,4.4c-2.3,3-3.4,7.1-3.4,12.4
					c0,5.2,1.2,9.2,3.4,12C186.4,97.6,189.7,99,193.9,99z M280.6,57.5l-23.5,53.9c-2.7,6.3-6.1,10.8-10.2,13.7
					c-4.6,3-9.8,5-15.3,5.7l-2.8-9.6c4.7-1.1,8.3-2.4,10.7-4c2.5-1.8,4.5-4.4,5.7-7.3l1.6-3.7l-21-48.7h13.1l14.5,36.3l14.8-36.3
					H280.6z M314.3,56.3c1.7,0,3.4,0.2,5,0.8l-0.1,11.4c-2.1-0.9-4.3-1.3-6.6-1.3c-4.3,0-7.5,1.2-9.8,3.7s-3.3,5.7-3.3,9.8V108
					h-12.4V71.8c0-4.8-0.2-9.6-0.8-14.3H298l1,8.9c1.1-3.1,3.2-5.7,6-7.5C307.8,57.2,311,56.2,314.3,56.3z M326.3,108V57.5h12.4V108
					H326.3z M325.5,34.6h13.9v12.3h-13.9V34.6z M381.3,56.2c12.1,0,18.1,6.9,18.1,20.8v31h-12.5V77.6c0-4-0.8-6.9-2.3-8.8
					s-3.9-2.8-7.1-2.8c-3.4-0.1-6.8,1.2-9.2,3.7c-2.4,2.6-3.7,6.1-3.5,9.7V108h-12.4V71.8c0-4.8-0.2-9.6-0.8-14.3h11.7l0.9,8.3
					c1.6-3,4.1-5.4,7-7.1C374.3,57,377.8,56.1,381.3,56.2z"/>
			</g>
		</g>
	</g>
</g>
</svg>
